<svg width="209" height="129" viewBox="0 0 209 129" fill="none" xmlns="http://www.w3.org/2000/svg">
    <path fill-rule="evenodd" clip-rule="evenodd"
        d="M206.974 5C206.974 3.34314 205.631 2 203.974 2H5C3.34314 2 2 3.34315 2 5V82.1455C2 83.8023 3.34315 85.1455 5 85.1455L37.4135 85.1455L3.63135 123.404C3.10307 124.002 2.98128 124.857 3.32152 125.579V125.579C3.82586 126.649 5.14412 127.05 6.15854 126.441L74.2617 85.5731C74.728 85.2933 75.2615 85.1455 75.8053 85.1455L203.974 85.1455C205.631 85.1455 206.974 83.8023 206.974 82.1455V5ZM8.37978 81.5545C6.72293 81.5545 5.37978 80.2113 5.37978 78.5545V8.59101C5.37978 6.93415 6.72293 5.591 8.37978 5.591H200.594C202.251 5.591 203.594 6.93415 203.594 8.591V78.5545C203.594 80.2113 202.251 81.5545 200.594 81.5545L75.2132 81.5545C74.6699 81.5545 74.1369 81.702 73.6709 81.9813L11.82 119.052L39.7272 86.5073C41.3958 84.5614 40.0132 81.5545 37.4498 81.5545L8.37978 81.5545Z"
        fill="black" stroke="black" stroke-width="4" />
    <circle cx="89.5" cy="43.5" r="9.5" stroke="black" stroke-width="6" />
    <circle cx="168.5" cy="43.5" r="9.5" stroke="black" stroke-width="6" />
</svg>