<svg width="205" height="126" viewBox="0 0 205 126" fill="none" xmlns="http://www.w3.org/2000/svg">
<path fill-rule="evenodd" clip-rule="evenodd" d="M204.974 3C204.974 1.34314 203.631 0 201.974 0H3C1.34315 0 0 1.34315 0 3V80.1455C0 81.8023 1.34315 83.1455 3 83.1455L35.4135 83.1455L1.63135 121.404C1.10307 122.002 0.981276 122.857 1.32152 123.579C1.82586 124.649 3.14412 125.05 4.15854 124.441L72.2617 83.5731C72.728 83.2933 73.2615 83.1455 73.8053 83.1455L201.974 83.1455C203.631 83.1455 204.974 81.8023 204.974 80.1455V3ZM6.37978 79.5545C4.72293 79.5545 3.37978 78.2113 3.37978 76.5545V6.59101C3.37978 4.93415 4.72293 3.591 6.37978 3.591H198.594C200.251 3.591 201.594 4.93415 201.594 6.591V76.5545C201.594 78.2113 200.251 79.5545 198.594 79.5545L73.2132 79.5545C72.6699 79.5545 72.1369 79.702 71.6709 79.9813L9.82003 117.052L37.7271 84.5073C39.3958 82.5614 38.0131 79.5545 35.4498 79.5545L6.37978 79.5545Z" fill="black"/>
<circle cx="85.5" cy="41.5" r="11" stroke="black" stroke-width="3"/>
<circle cx="181.5" cy="41.5" r="11" stroke="black" stroke-width="3"/>
</svg>
